<mxfile host="app.diagrams.net" modified="2024-05-31T09:53:15.288Z" agent="Mozilla/5.0 (Windows NT 10.0; Win64; x64) AppleWebKit/537.36 (KHTML, like Gecko) Chrome/125.0.0.0 Safari/537.36" etag="NKbHV1UxRakG2voyeOLv" version="24.4.10" type="github" pages="3">
  <diagram id="9kUjLdXwX5VqoD8rsrzN" name="编码器">
    <mxGraphModel dx="973" dy="559" grid="1" gridSize="10" guides="1" tooltips="1" connect="1" arrows="1" fold="1" page="1" pageScale="1" pageWidth="4681" pageHeight="3300" math="1" shadow="0">
      <root>
        <mxCell id="0" />
        <mxCell id="1" parent="0" />
        <mxCell id="4w_2tmwHw1KH1au3sEP3-73" value="" style="rounded=0;whiteSpace=wrap;html=1;strokeWidth=0.5;glass=0;shadow=0;opacity=50;fillColor=#f5f5f5;fontColor=#333333;strokeColor=#000000;fontFamily=Times New Roman;" parent="1" vertex="1">
          <mxGeometry x="416" y="463" width="78" height="125" as="geometry" />
        </mxCell>
        <mxCell id="4w_2tmwHw1KH1au3sEP3-30" value="" style="group;strokeWidth=0.5;fillColor=#fff2cc;strokeColor=#d6b656;fontFamily=Times New Roman;" parent="1" vertex="1" connectable="0">
          <mxGeometry x="440" y="525" width="50" height="10" as="geometry" />
        </mxCell>
        <mxCell id="4w_2tmwHw1KH1au3sEP3-29" value="" style="rounded=1;whiteSpace=wrap;html=1;strokeWidth=0.5;fontFamily=Times New Roman;" parent="4w_2tmwHw1KH1au3sEP3-30" vertex="1">
          <mxGeometry width="50" height="10" as="geometry" />
        </mxCell>
        <mxCell id="4w_2tmwHw1KH1au3sEP3-28" value="&lt;p style=&quot;line-height: 60%;&quot;&gt;&lt;font style=&quot;font-size: 8px;&quot;&gt;Add&amp;amp;Norm&lt;/font&gt;&lt;/p&gt;" style="text;html=1;strokeColor=#d6b656;fillColor=#fff2cc;align=center;verticalAlign=middle;whiteSpace=wrap;rounded=0;strokeWidth=0.5;fontFamily=Times New Roman;" parent="4w_2tmwHw1KH1au3sEP3-30" vertex="1">
          <mxGeometry width="50" height="10" as="geometry" />
        </mxCell>
        <mxCell id="4w_2tmwHw1KH1au3sEP3-69" value="" style="group;strokeWidth=0.5;fillColor=#ffe6cc;strokeColor=#d79b00;fontFamily=Times New Roman;" parent="1" vertex="1" connectable="0">
          <mxGeometry x="440" y="545" width="50" height="20" as="geometry" />
        </mxCell>
        <mxCell id="4w_2tmwHw1KH1au3sEP3-19" value="&lt;p style=&quot;line-height: 40%;&quot;&gt;&lt;br&gt;&lt;/p&gt;" style="rounded=1;whiteSpace=wrap;html=1;strokeWidth=0.5;fontFamily=Times New Roman;" parent="4w_2tmwHw1KH1au3sEP3-69" vertex="1">
          <mxGeometry width="50" height="20" as="geometry" />
        </mxCell>
        <mxCell id="4w_2tmwHw1KH1au3sEP3-23" value="&lt;p style=&quot;line-height: 60%;&quot;&gt;&lt;font style=&quot;font-size: 8px;&quot;&gt;Multi-Head&lt;br style=&quot;border-color: var(--border-color);&quot;&gt;Attention&lt;/font&gt;&lt;/p&gt;" style="text;html=1;strokeColor=#d79b00;fillColor=#ffe6cc;align=center;verticalAlign=middle;whiteSpace=wrap;rounded=0;strokeWidth=0.5;fontFamily=Times New Roman;" parent="4w_2tmwHw1KH1au3sEP3-69" vertex="1">
          <mxGeometry width="50" height="20" as="geometry" />
        </mxCell>
        <mxCell id="4w_2tmwHw1KH1au3sEP3-25" value="" style="group;strokeWidth=0.5;fillColor=#f8cecc;strokeColor=#b85450;fontFamily=Times New Roman;" parent="1" vertex="1" connectable="0">
          <mxGeometry x="440" y="620" width="50" height="20" as="geometry" />
        </mxCell>
        <mxCell id="4w_2tmwHw1KH1au3sEP3-18" value="&lt;p style=&quot;line-height: 51%;&quot;&gt;&lt;br&gt;&lt;/p&gt;" style="rounded=1;whiteSpace=wrap;html=1;strokeWidth=0.5;fontFamily=Times New Roman;" parent="4w_2tmwHw1KH1au3sEP3-25" vertex="1">
          <mxGeometry width="50" height="20" as="geometry" />
        </mxCell>
        <mxCell id="4w_2tmwHw1KH1au3sEP3-20" value="&lt;p style=&quot;line-height: 60%;&quot;&gt;&lt;font style=&quot;font-size: 8px;&quot;&gt;input&lt;br style=&quot;border-color: var(--border-color);&quot;&gt;Embedding&lt;/font&gt;&lt;/p&gt;" style="text;html=1;strokeColor=#b85450;fillColor=#f8cecc;align=center;verticalAlign=middle;whiteSpace=wrap;rounded=0;strokeWidth=0.5;fontFamily=Times New Roman;" parent="4w_2tmwHw1KH1au3sEP3-25" vertex="1">
          <mxGeometry width="50" height="20" as="geometry" />
        </mxCell>
        <mxCell id="4w_2tmwHw1KH1au3sEP3-48" style="edgeStyle=orthogonalEdgeStyle;rounded=0;orthogonalLoop=1;jettySize=auto;html=1;endArrow=blockThin;endFill=1;strokeWidth=0.5;fontFamily=Times New Roman;" parent="1" source="4w_2tmwHw1KH1au3sEP3-47" target="4w_2tmwHw1KH1au3sEP3-20" edge="1">
          <mxGeometry relative="1" as="geometry" />
        </mxCell>
        <mxCell id="4w_2tmwHw1KH1au3sEP3-47" value="&lt;p style=&quot;line-height: 60%;&quot;&gt;&lt;span style=&quot;font-size: 8px;&quot;&gt;Inputs&lt;/span&gt;&lt;/p&gt;" style="text;html=1;strokeColor=none;fillColor=none;align=center;verticalAlign=middle;whiteSpace=wrap;rounded=0;container=0;strokeWidth=0.5;fontFamily=Times New Roman;" parent="1" vertex="1">
          <mxGeometry x="440" y="660" width="50" height="10" as="geometry" />
        </mxCell>
        <mxCell id="4w_2tmwHw1KH1au3sEP3-49" value="&lt;p style=&quot;line-height: 60%;&quot;&gt;&lt;span style=&quot;font-size: 8px;&quot;&gt;Nx&lt;/span&gt;&lt;/p&gt;" style="text;html=1;strokeColor=none;fillColor=none;align=center;verticalAlign=middle;whiteSpace=wrap;rounded=0;container=0;strokeWidth=0.5;fontFamily=Times New Roman;" parent="1" vertex="1">
          <mxGeometry x="403" y="535" width="10" height="5" as="geometry" />
        </mxCell>
        <mxCell id="4w_2tmwHw1KH1au3sEP3-53" value="" style="endArrow=blockThin;html=1;rounded=0;endFill=1;exitX=0.5;exitY=0;exitDx=0;exitDy=0;strokeWidth=0.5;fontFamily=Times New Roman;" parent="1" source="4w_2tmwHw1KH1au3sEP3-20" edge="1">
          <mxGeometry width="50" height="50" relative="1" as="geometry">
            <mxPoint x="464.92" y="615" as="sourcePoint" />
            <mxPoint x="465" y="605" as="targetPoint" />
          </mxGeometry>
        </mxCell>
        <mxCell id="4w_2tmwHw1KH1au3sEP3-54" value="" style="endArrow=blockThin;html=1;rounded=0;endFill=1;exitX=0.5;exitY=0;exitDx=0;exitDy=0;strokeWidth=0.5;entryX=0.5;entryY=1;entryDx=0;entryDy=0;fontFamily=Times New Roman;" parent="1" target="4w_2tmwHw1KH1au3sEP3-23" edge="1">
          <mxGeometry width="50" height="50" relative="1" as="geometry">
            <mxPoint x="464.88" y="595" as="sourcePoint" />
            <mxPoint x="465" y="570" as="targetPoint" />
          </mxGeometry>
        </mxCell>
        <mxCell id="4w_2tmwHw1KH1au3sEP3-56" value="" style="endArrow=blockThin;startArrow=blockThin;html=1;rounded=0;endFill=1;startFill=1;strokeWidth=0.5;fontFamily=Times New Roman;" parent="1" edge="1">
          <mxGeometry width="50" height="50" relative="1" as="geometry">
            <mxPoint x="450" y="565" as="sourcePoint" />
            <mxPoint x="480" y="565" as="targetPoint" />
            <Array as="points">
              <mxPoint x="450" y="580" />
              <mxPoint x="480" y="580" />
            </Array>
          </mxGeometry>
        </mxCell>
        <mxCell id="4w_2tmwHw1KH1au3sEP3-60" style="edgeStyle=orthogonalEdgeStyle;rounded=0;orthogonalLoop=1;jettySize=auto;html=1;entryX=0.5;entryY=1;entryDx=0;entryDy=0;endArrow=blockThin;endFill=1;strokeWidth=0.5;fontFamily=Times New Roman;" parent="1" source="4w_2tmwHw1KH1au3sEP3-28" target="4w_2tmwHw1KH1au3sEP3-26" edge="1">
          <mxGeometry relative="1" as="geometry" />
        </mxCell>
        <mxCell id="4w_2tmwHw1KH1au3sEP3-65" value="" style="endArrow=blockThin;html=1;rounded=0;endFill=1;entryX=0;entryY=0.5;entryDx=0;entryDy=0;strokeWidth=0.5;fontFamily=Times New Roman;" parent="1" target="4w_2tmwHw1KH1au3sEP3-28" edge="1">
          <mxGeometry width="50" height="50" relative="1" as="geometry">
            <mxPoint x="465" y="585" as="sourcePoint" />
            <mxPoint x="410" y="515" as="targetPoint" />
            <Array as="points">
              <mxPoint x="420" y="585" />
              <mxPoint x="420" y="555" />
              <mxPoint x="420" y="530" />
            </Array>
          </mxGeometry>
        </mxCell>
        <mxCell id="4w_2tmwHw1KH1au3sEP3-68" value="" style="endArrow=blockThin;html=1;rounded=0;endFill=1;entryX=0;entryY=0.5;entryDx=0;entryDy=0;strokeWidth=0.5;fontFamily=Times New Roman;" parent="1" edge="1">
          <mxGeometry width="50" height="50" relative="1" as="geometry">
            <mxPoint x="465" y="519" as="sourcePoint" />
            <mxPoint x="440" y="470" as="targetPoint" />
            <Array as="points">
              <mxPoint x="420" y="519" />
              <mxPoint x="420" y="489" />
              <mxPoint x="420" y="470" />
            </Array>
          </mxGeometry>
        </mxCell>
        <mxCell id="4w_2tmwHw1KH1au3sEP3-75" value="" style="endArrow=blockThin;html=1;rounded=0;endFill=1;exitX=0.5;exitY=0;exitDx=0;exitDy=0;strokeWidth=0.5;fontFamily=Times New Roman;" parent="1" edge="1">
          <mxGeometry width="50" height="50" relative="1" as="geometry">
            <mxPoint x="464.86" y="465" as="sourcePoint" />
            <mxPoint x="464.86" y="450" as="targetPoint" />
          </mxGeometry>
        </mxCell>
        <mxCell id="4w_2tmwHw1KH1au3sEP3-76" value="&lt;p style=&quot;line-height: 60%;&quot;&gt;&lt;span style=&quot;font-size: 8px;&quot;&gt;Outputs&lt;/span&gt;&lt;/p&gt;" style="text;html=1;strokeColor=none;fillColor=none;align=center;verticalAlign=middle;whiteSpace=wrap;rounded=0;container=0;strokeWidth=0.5;fontFamily=Times New Roman;" parent="1" vertex="1">
          <mxGeometry x="440" y="440" width="50" height="10" as="geometry" />
        </mxCell>
        <mxCell id="4w_2tmwHw1KH1au3sEP3-77" value="" style="endArrow=none;html=1;rounded=0;strokeWidth=0.5;fontFamily=Times New Roman;" parent="1" edge="1">
          <mxGeometry width="50" height="50" relative="1" as="geometry">
            <mxPoint x="464.86" y="545" as="sourcePoint" />
            <mxPoint x="464.86" y="535" as="targetPoint" />
          </mxGeometry>
        </mxCell>
        <mxCell id="4w_2tmwHw1KH1au3sEP3-82" value="" style="endArrow=none;html=1;rounded=0;strokeWidth=0.5;fontFamily=Times New Roman;" parent="1" edge="1">
          <mxGeometry width="50" height="50" relative="1" as="geometry">
            <mxPoint x="440" y="600" as="sourcePoint" />
            <mxPoint x="460" y="599.86" as="targetPoint" />
          </mxGeometry>
        </mxCell>
        <mxCell id="4w_2tmwHw1KH1au3sEP3-87" value="" style="group;strokeWidth=0.5;fillColor=#f5f5f5;fontColor=#333333;strokeColor=#666666;fontFamily=Times New Roman;" parent="1" vertex="1" connectable="0">
          <mxGeometry x="400" y="590" width="40" height="20" as="geometry" />
        </mxCell>
        <mxCell id="4w_2tmwHw1KH1au3sEP3-86" value="" style="rounded=0;whiteSpace=wrap;html=1;strokeWidth=0.5;fontFamily=Times New Roman;" parent="4w_2tmwHw1KH1au3sEP3-87" vertex="1">
          <mxGeometry width="40" height="20" as="geometry" />
        </mxCell>
        <mxCell id="4w_2tmwHw1KH1au3sEP3-85" value="&lt;p style=&quot;line-height: 60%;&quot;&gt;&lt;font style=&quot;font-size: 8px;&quot;&gt;Positional&lt;br style=&quot;border-color: var(--border-color);&quot;&gt;Encoding&lt;/font&gt;&lt;/p&gt;" style="text;html=1;strokeColor=#d79b00;fillColor=#ffe6cc;align=center;verticalAlign=middle;whiteSpace=wrap;rounded=0;container=0;strokeWidth=0.5;fontFamily=Times New Roman;" parent="4w_2tmwHw1KH1au3sEP3-87" vertex="1">
          <mxGeometry width="40" height="20" as="geometry" />
        </mxCell>
        <mxCell id="4w_2tmwHw1KH1au3sEP3-91" value="" style="group;strokeWidth=0.5;fillColor=#fff2cc;strokeColor=#d6b656;fontFamily=Times New Roman;" parent="1" vertex="1" connectable="0">
          <mxGeometry x="440" y="465" width="50" height="10" as="geometry" />
        </mxCell>
        <mxCell id="4w_2tmwHw1KH1au3sEP3-92" value="" style="rounded=1;whiteSpace=wrap;html=1;strokeWidth=0.5;fontFamily=Times New Roman;" parent="4w_2tmwHw1KH1au3sEP3-91" vertex="1">
          <mxGeometry width="50" height="10" as="geometry" />
        </mxCell>
        <mxCell id="4w_2tmwHw1KH1au3sEP3-93" value="&lt;p style=&quot;line-height: 60%;&quot;&gt;&lt;font style=&quot;font-size: 8px;&quot;&gt;Add&amp;amp;Norm&lt;/font&gt;&lt;/p&gt;" style="text;html=1;strokeColor=#d6b656;fillColor=#fff2cc;align=center;verticalAlign=middle;whiteSpace=wrap;rounded=0;strokeWidth=0.5;fontFamily=Times New Roman;" parent="4w_2tmwHw1KH1au3sEP3-91" vertex="1">
          <mxGeometry width="50" height="10" as="geometry" />
        </mxCell>
        <mxCell id="4w_2tmwHw1KH1au3sEP3-94" value="" style="endArrow=none;html=1;rounded=0;strokeWidth=0.5;fontFamily=Times New Roman;" parent="1" edge="1">
          <mxGeometry width="50" height="50" relative="1" as="geometry">
            <mxPoint x="464.86" y="485" as="sourcePoint" />
            <mxPoint x="464.86" y="475" as="targetPoint" />
            <Array as="points">
              <mxPoint x="464.86" y="475" />
            </Array>
          </mxGeometry>
        </mxCell>
        <mxCell id="4w_2tmwHw1KH1au3sEP3-95" style="edgeStyle=orthogonalEdgeStyle;rounded=0;orthogonalLoop=1;jettySize=auto;html=1;entryX=0.5;entryY=1;entryDx=0;entryDy=0;endArrow=blockThin;endFill=1;strokeWidth=0.5;fontFamily=Times New Roman;" parent="1" source="4w_2tmwHw1KH1au3sEP3-28" target="4w_2tmwHw1KH1au3sEP3-33" edge="1">
          <mxGeometry relative="1" as="geometry" />
        </mxCell>
        <mxCell id="4w_2tmwHw1KH1au3sEP3-33" value="&lt;p style=&quot;line-height: 40%;&quot;&gt;&lt;br&gt;&lt;/p&gt;" style="rounded=1;whiteSpace=wrap;html=1;strokeWidth=0.5;fillColor=#dae8fc;strokeColor=#6c8ebf;fontFamily=Times New Roman;" parent="1" vertex="1">
          <mxGeometry x="440" y="485" width="50" height="20" as="geometry" />
        </mxCell>
        <mxCell id="4w_2tmwHw1KH1au3sEP3-26" value="&lt;p style=&quot;line-height: 60%;&quot;&gt;&lt;font style=&quot;font-size: 8px;&quot;&gt;Feed&lt;br style=&quot;border-color: var(--border-color);&quot;&gt;Forward&lt;/font&gt;&lt;/p&gt;" style="text;html=1;strokeColor=none;fillColor=none;align=center;verticalAlign=middle;whiteSpace=wrap;rounded=0;strokeWidth=0.5;fontFamily=Times New Roman;" parent="1" vertex="1">
          <mxGeometry x="440" y="485" width="50" height="20" as="geometry" />
        </mxCell>
        <mxCell id="XTyS_m4V_EAGizHDSdQi-1" value="" style="shape=orEllipse;perimeter=ellipsePerimeter;whiteSpace=wrap;html=1;backgroundOutline=1;strokeWidth=0.5;fontFamily=Times New Roman;" parent="1" vertex="1">
          <mxGeometry x="460" y="595" width="10" height="10" as="geometry" />
        </mxCell>
      </root>
    </mxGraphModel>
  </diagram>
  <diagram id="nC-am8VOP0rULaIA-BoG" name="vit">
    <mxGraphModel dx="1185" dy="627" grid="1" gridSize="10" guides="1" tooltips="1" connect="1" arrows="1" fold="1" page="1" pageScale="1" pageWidth="4681" pageHeight="3300" math="0" shadow="0">
      <root>
        <mxCell id="0" />
        <mxCell id="1" parent="0" />
        <mxCell id="PCtr2D4rtnSgnAKfIknr-26" value="" style="rounded=0;whiteSpace=wrap;html=1;fontFamily=Times New Roman;fontSize=11;fillColor=#f5f5f5;dashed=1;strokeColor=#666666;collapsible=0;resizable=1;metaEdit=0;connectable=1;allowArrows=1;perimeter=rectanglePerimeter;imageWidth=24;arcSize=12;absoluteArcSize=0;strokeOpacity=100;noLabel=0;portConstraintRotation=0;snapToPoint=1;verticalLabelPosition=bottom;verticalAlign=top;html=1;shape=mxgraph.basic.rect;strokeWidth=1;size=20;indent =5;top=1;right=1;fontColor=#333333;" parent="1" vertex="1">
          <mxGeometry x="480" y="460" width="144.25" height="227" as="geometry" />
        </mxCell>
        <mxCell id="PCtr2D4rtnSgnAKfIknr-11" style="edgeStyle=orthogonalEdgeStyle;rounded=0;orthogonalLoop=1;jettySize=auto;html=1;entryX=0.5;entryY=1;entryDx=0;entryDy=0;endArrow=blockThin;endFill=1;endSize=4;fontFamily=Times New Roman;" parent="1" source="PCtr2D4rtnSgnAKfIknr-1" target="PCtr2D4rtnSgnAKfIknr-3" edge="1">
          <mxGeometry relative="1" as="geometry" />
        </mxCell>
        <mxCell id="PCtr2D4rtnSgnAKfIknr-1" value="&lt;font style=&quot;font-size: 10px;&quot;&gt;Embeded Patches&lt;/font&gt;" style="rounded=0;whiteSpace=wrap;html=1;fillColor=#f8cecc;strokeColor=#b85450;fontFamily=Times New Roman;" parent="1" vertex="1">
          <mxGeometry x="497.25" y="725" width="120" height="20" as="geometry" />
        </mxCell>
        <mxCell id="PCtr2D4rtnSgnAKfIknr-12" style="edgeStyle=orthogonalEdgeStyle;rounded=0;orthogonalLoop=1;jettySize=auto;html=1;entryX=0.5;entryY=1;entryDx=0;entryDy=0;endArrow=blockThin;endFill=1;endSize=4;fontFamily=Times New Roman;" parent="1" source="PCtr2D4rtnSgnAKfIknr-3" target="PCtr2D4rtnSgnAKfIknr-4" edge="1">
          <mxGeometry relative="1" as="geometry" />
        </mxCell>
        <mxCell id="PCtr2D4rtnSgnAKfIknr-3" value="" style="shape=orEllipse;perimeter=ellipsePerimeter;whiteSpace=wrap;html=1;backgroundOutline=1;fontFamily=Times New Roman;" parent="1" vertex="1">
          <mxGeometry x="547.25" y="690" width="20" height="20" as="geometry" />
        </mxCell>
        <mxCell id="PCtr2D4rtnSgnAKfIknr-14" style="edgeStyle=orthogonalEdgeStyle;rounded=0;orthogonalLoop=1;jettySize=auto;html=1;entryX=0.5;entryY=1;entryDx=0;entryDy=0;endArrow=blockThin;endFill=1;endSize=4;fontFamily=Times New Roman;" parent="1" source="PCtr2D4rtnSgnAKfIknr-4" target="PCtr2D4rtnSgnAKfIknr-5" edge="1">
          <mxGeometry relative="1" as="geometry" />
        </mxCell>
        <mxCell id="PCtr2D4rtnSgnAKfIknr-4" value="&lt;font style=&quot;font-size: 10px;&quot;&gt;Norm&lt;/font&gt;" style="rounded=0;whiteSpace=wrap;html=1;fillColor=#dae8fc;strokeColor=#6c8ebf;fontFamily=Times New Roman;" parent="1" vertex="1">
          <mxGeometry x="497.25" y="650" width="120" height="20" as="geometry" />
        </mxCell>
        <mxCell id="PCtr2D4rtnSgnAKfIknr-15" style="edgeStyle=orthogonalEdgeStyle;rounded=0;orthogonalLoop=1;jettySize=auto;html=1;entryX=0.5;entryY=1;entryDx=0;entryDy=0;endArrow=blockThin;endFill=1;endSize=4;fontFamily=Times New Roman;" parent="1" source="PCtr2D4rtnSgnAKfIknr-5" target="PCtr2D4rtnSgnAKfIknr-6" edge="1">
          <mxGeometry relative="1" as="geometry" />
        </mxCell>
        <mxCell id="PCtr2D4rtnSgnAKfIknr-5" value="&lt;font style=&quot;font-size: 10px;&quot;&gt;MHA&lt;/font&gt;" style="rounded=0;whiteSpace=wrap;html=1;fillColor=#fff2cc;strokeColor=#d6b656;fontFamily=Times New Roman;" parent="1" vertex="1">
          <mxGeometry x="497.25" y="610" width="120" height="20" as="geometry" />
        </mxCell>
        <mxCell id="PCtr2D4rtnSgnAKfIknr-16" style="edgeStyle=orthogonalEdgeStyle;rounded=0;orthogonalLoop=1;jettySize=auto;html=1;entryX=0.5;entryY=1;entryDx=0;entryDy=0;endArrow=blockThin;endFill=1;endSize=4;fontFamily=Times New Roman;" parent="1" source="PCtr2D4rtnSgnAKfIknr-6" target="PCtr2D4rtnSgnAKfIknr-8" edge="1">
          <mxGeometry relative="1" as="geometry" />
        </mxCell>
        <mxCell id="PCtr2D4rtnSgnAKfIknr-6" value="" style="shape=orEllipse;perimeter=ellipsePerimeter;whiteSpace=wrap;html=1;backgroundOutline=1;fontFamily=Times New Roman;" parent="1" vertex="1">
          <mxGeometry x="547.25" y="570" width="20" height="20" as="geometry" />
        </mxCell>
        <mxCell id="PCtr2D4rtnSgnAKfIknr-7" value="&lt;font style=&quot;font-size: 10px;&quot;&gt;Norm&lt;/font&gt;" style="rounded=0;whiteSpace=wrap;html=1;fontFamily=Times New Roman;" parent="1" vertex="1">
          <mxGeometry x="497.25" y="530" width="120" height="20" as="geometry" />
        </mxCell>
        <mxCell id="PCtr2D4rtnSgnAKfIknr-17" style="edgeStyle=orthogonalEdgeStyle;rounded=0;orthogonalLoop=1;jettySize=auto;html=1;entryX=0.5;entryY=1;entryDx=0;entryDy=0;endArrow=blockThin;endFill=1;endSize=4;fontFamily=Times New Roman;" parent="1" source="PCtr2D4rtnSgnAKfIknr-8" target="PCtr2D4rtnSgnAKfIknr-9" edge="1">
          <mxGeometry relative="1" as="geometry" />
        </mxCell>
        <mxCell id="PCtr2D4rtnSgnAKfIknr-8" value="&lt;font style=&quot;font-size: 10px;&quot;&gt;Norm&lt;/font&gt;" style="rounded=0;whiteSpace=wrap;html=1;fillColor=#dae8fc;strokeColor=#6c8ebf;fontFamily=Times New Roman;" parent="1" vertex="1">
          <mxGeometry x="497.25" y="530" width="120" height="20" as="geometry" />
        </mxCell>
        <mxCell id="PCtr2D4rtnSgnAKfIknr-18" style="edgeStyle=orthogonalEdgeStyle;rounded=0;orthogonalLoop=1;jettySize=auto;html=1;entryX=0.5;entryY=1;entryDx=0;entryDy=0;endArrow=blockThin;endFill=1;endSize=4;fontFamily=Times New Roman;" parent="1" source="PCtr2D4rtnSgnAKfIknr-9" target="PCtr2D4rtnSgnAKfIknr-10" edge="1">
          <mxGeometry relative="1" as="geometry" />
        </mxCell>
        <mxCell id="PCtr2D4rtnSgnAKfIknr-9" value="&lt;font style=&quot;font-size: 10px;&quot;&gt;MLP&lt;/font&gt;" style="rounded=0;whiteSpace=wrap;html=1;fillColor=#ffe6cc;strokeColor=#d79b00;fontFamily=Times New Roman;" parent="1" vertex="1">
          <mxGeometry x="497.25" y="498" width="120" height="20" as="geometry" />
        </mxCell>
        <mxCell id="PCtr2D4rtnSgnAKfIknr-116" style="edgeStyle=orthogonalEdgeStyle;rounded=0;orthogonalLoop=1;jettySize=auto;html=1;fontFamily=Times New Roman;" parent="1" source="PCtr2D4rtnSgnAKfIknr-10" edge="1">
          <mxGeometry relative="1" as="geometry">
            <mxPoint x="557.25" y="440" as="targetPoint" />
          </mxGeometry>
        </mxCell>
        <mxCell id="PCtr2D4rtnSgnAKfIknr-10" value="" style="shape=orEllipse;perimeter=ellipsePerimeter;whiteSpace=wrap;html=1;backgroundOutline=1;fontFamily=Times New Roman;" parent="1" vertex="1">
          <mxGeometry x="547.25" y="463" width="20" height="20" as="geometry" />
        </mxCell>
        <mxCell id="PCtr2D4rtnSgnAKfIknr-19" value="" style="endArrow=blockThin;html=1;rounded=0;entryX=0;entryY=0.5;entryDx=0;entryDy=0;endFill=1;endSize=4;fontFamily=Times New Roman;" parent="1" target="PCtr2D4rtnSgnAKfIknr-6" edge="1">
          <mxGeometry width="50" height="50" relative="1" as="geometry">
            <mxPoint x="557.25" y="684" as="sourcePoint" />
            <mxPoint x="487.25" y="570" as="targetPoint" />
            <Array as="points">
              <mxPoint x="487.25" y="684" />
              <mxPoint x="487.25" y="580" />
            </Array>
          </mxGeometry>
        </mxCell>
        <mxCell id="PCtr2D4rtnSgnAKfIknr-61" style="edgeStyle=orthogonalEdgeStyle;rounded=0;orthogonalLoop=1;jettySize=auto;html=1;entryX=0.5;entryY=1;entryDx=0;entryDy=0;endSize=4;endArrow=blockThin;endFill=1;fontFamily=Times New Roman;" parent="1" source="PCtr2D4rtnSgnAKfIknr-27" target="PCtr2D4rtnSgnAKfIknr-31" edge="1">
          <mxGeometry relative="1" as="geometry" />
        </mxCell>
        <mxCell id="PCtr2D4rtnSgnAKfIknr-27" value="&lt;font style=&quot;font-size: 10px;&quot;&gt;a&lt;/font&gt;" style="rounded=0;whiteSpace=wrap;html=1;fontFamily=Times New Roman;" parent="1" vertex="1">
          <mxGeometry x="770" y="725" width="10" height="10" as="geometry" />
        </mxCell>
        <mxCell id="PCtr2D4rtnSgnAKfIknr-63" style="edgeStyle=orthogonalEdgeStyle;rounded=0;orthogonalLoop=1;jettySize=auto;html=1;entryX=0.5;entryY=1;entryDx=0;entryDy=0;endSize=4;endArrow=blockThin;endFill=1;fontFamily=Times New Roman;" parent="1" source="PCtr2D4rtnSgnAKfIknr-28" target="PCtr2D4rtnSgnAKfIknr-34" edge="1">
          <mxGeometry relative="1" as="geometry" />
        </mxCell>
        <mxCell id="PCtr2D4rtnSgnAKfIknr-28" value="&lt;font style=&quot;font-size: 10px;&quot;&gt;b&lt;/font&gt;" style="rounded=0;whiteSpace=wrap;html=1;fontFamily=Times New Roman;" parent="1" vertex="1">
          <mxGeometry x="800" y="725" width="10" height="10" as="geometry" />
        </mxCell>
        <mxCell id="PCtr2D4rtnSgnAKfIknr-64" style="edgeStyle=orthogonalEdgeStyle;rounded=0;orthogonalLoop=1;jettySize=auto;html=1;entryX=0.5;entryY=1;entryDx=0;entryDy=0;endSize=4;endArrow=blockThin;endFill=1;fontFamily=Times New Roman;" parent="1" source="PCtr2D4rtnSgnAKfIknr-29" target="PCtr2D4rtnSgnAKfIknr-35" edge="1">
          <mxGeometry relative="1" as="geometry" />
        </mxCell>
        <mxCell id="PCtr2D4rtnSgnAKfIknr-29" value="&lt;font style=&quot;font-size: 10px;&quot;&gt;c&lt;/font&gt;" style="rounded=0;whiteSpace=wrap;html=1;fontFamily=Times New Roman;" parent="1" vertex="1">
          <mxGeometry x="830" y="725" width="10" height="10" as="geometry" />
        </mxCell>
        <mxCell id="PCtr2D4rtnSgnAKfIknr-31" value="" style="rounded=1;whiteSpace=wrap;html=1;fillColor=#d5e8d4;strokeColor=#82b366;fontFamily=Times New Roman;" parent="1" vertex="1">
          <mxGeometry x="770" y="645" width="10" height="20" as="geometry" />
        </mxCell>
        <mxCell id="PCtr2D4rtnSgnAKfIknr-34" value="" style="rounded=1;whiteSpace=wrap;html=1;fillColor=#d5e8d4;strokeColor=#82b366;fontFamily=Times New Roman;" parent="1" vertex="1">
          <mxGeometry x="800" y="645" width="10" height="20" as="geometry" />
        </mxCell>
        <mxCell id="PCtr2D4rtnSgnAKfIknr-35" value="" style="rounded=1;whiteSpace=wrap;html=1;fillColor=#d5e8d4;strokeColor=#82b366;fontFamily=Times New Roman;" parent="1" vertex="1">
          <mxGeometry x="830" y="645" width="10" height="20" as="geometry" />
        </mxCell>
        <mxCell id="PCtr2D4rtnSgnAKfIknr-36" value="" style="rounded=1;whiteSpace=wrap;html=1;fillColor=#d5e8d4;strokeColor=#82b366;fontFamily=Times New Roman;" parent="1" vertex="1">
          <mxGeometry x="860" y="645" width="10" height="20" as="geometry" />
        </mxCell>
        <mxCell id="PCtr2D4rtnSgnAKfIknr-65" style="edgeStyle=orthogonalEdgeStyle;rounded=0;orthogonalLoop=1;jettySize=auto;html=1;entryX=0.5;entryY=1;entryDx=0;entryDy=0;endSize=4;endArrow=blockThin;endFill=1;fontFamily=Times New Roman;" parent="1" source="PCtr2D4rtnSgnAKfIknr-37" target="PCtr2D4rtnSgnAKfIknr-36" edge="1">
          <mxGeometry relative="1" as="geometry" />
        </mxCell>
        <mxCell id="PCtr2D4rtnSgnAKfIknr-37" value="&lt;font style=&quot;font-size: 10px;&quot;&gt;d&lt;/font&gt;" style="rounded=0;whiteSpace=wrap;html=1;fontFamily=Times New Roman;" parent="1" vertex="1">
          <mxGeometry x="860" y="725" width="10" height="10" as="geometry" />
        </mxCell>
        <mxCell id="PCtr2D4rtnSgnAKfIknr-66" style="edgeStyle=orthogonalEdgeStyle;rounded=0;orthogonalLoop=1;jettySize=auto;html=1;entryX=0.5;entryY=1;entryDx=0;entryDy=0;endSize=4;endArrow=blockThin;endFill=1;fontFamily=Times New Roman;" parent="1" source="PCtr2D4rtnSgnAKfIknr-38" target="PCtr2D4rtnSgnAKfIknr-40" edge="1">
          <mxGeometry relative="1" as="geometry" />
        </mxCell>
        <mxCell id="PCtr2D4rtnSgnAKfIknr-38" value="&lt;font style=&quot;font-size: 10px;&quot;&gt;e&lt;/font&gt;" style="rounded=0;whiteSpace=wrap;html=1;fontFamily=Times New Roman;" parent="1" vertex="1">
          <mxGeometry x="890" y="725" width="10" height="10" as="geometry" />
        </mxCell>
        <mxCell id="PCtr2D4rtnSgnAKfIknr-67" style="edgeStyle=orthogonalEdgeStyle;rounded=0;orthogonalLoop=1;jettySize=auto;html=1;entryX=0.5;entryY=1;entryDx=0;entryDy=0;endSize=4;endArrow=blockThin;endFill=1;fontFamily=Times New Roman;" parent="1" source="PCtr2D4rtnSgnAKfIknr-39" target="PCtr2D4rtnSgnAKfIknr-41" edge="1">
          <mxGeometry relative="1" as="geometry" />
        </mxCell>
        <mxCell id="PCtr2D4rtnSgnAKfIknr-39" value="&lt;font style=&quot;font-size: 10px;&quot;&gt;f&lt;/font&gt;" style="rounded=0;whiteSpace=wrap;html=1;fontFamily=Times New Roman;" parent="1" vertex="1">
          <mxGeometry x="920" y="725" width="10" height="10" as="geometry" />
        </mxCell>
        <mxCell id="PCtr2D4rtnSgnAKfIknr-40" value="" style="rounded=1;whiteSpace=wrap;html=1;fillColor=#d5e8d4;strokeColor=#82b366;fontFamily=Times New Roman;" parent="1" vertex="1">
          <mxGeometry x="890" y="645" width="10" height="20" as="geometry" />
        </mxCell>
        <mxCell id="PCtr2D4rtnSgnAKfIknr-41" value="" style="rounded=1;whiteSpace=wrap;html=1;fillColor=#d5e8d4;strokeColor=#82b366;fontFamily=Times New Roman;" parent="1" vertex="1">
          <mxGeometry x="920" y="645" width="10" height="20" as="geometry" />
        </mxCell>
        <mxCell id="PCtr2D4rtnSgnAKfIknr-68" style="edgeStyle=orthogonalEdgeStyle;rounded=0;orthogonalLoop=1;jettySize=auto;html=1;entryX=0.5;entryY=1;entryDx=0;entryDy=0;endSize=4;endArrow=blockThin;endFill=1;fontFamily=Times New Roman;" parent="1" source="PCtr2D4rtnSgnAKfIknr-42" target="PCtr2D4rtnSgnAKfIknr-43" edge="1">
          <mxGeometry relative="1" as="geometry" />
        </mxCell>
        <mxCell id="PCtr2D4rtnSgnAKfIknr-42" value="&lt;font style=&quot;font-size: 10px;&quot;&gt;g&lt;/font&gt;" style="rounded=0;whiteSpace=wrap;html=1;fontFamily=Times New Roman;" parent="1" vertex="1">
          <mxGeometry x="950" y="725" width="10" height="10" as="geometry" />
        </mxCell>
        <mxCell id="PCtr2D4rtnSgnAKfIknr-43" value="" style="rounded=1;whiteSpace=wrap;html=1;fillColor=#d5e8d4;strokeColor=#82b366;fontFamily=Times New Roman;" parent="1" vertex="1">
          <mxGeometry x="950" y="645" width="10" height="20" as="geometry" />
        </mxCell>
        <mxCell id="PCtr2D4rtnSgnAKfIknr-70" style="edgeStyle=orthogonalEdgeStyle;rounded=0;orthogonalLoop=1;jettySize=auto;html=1;entryX=0.5;entryY=1;entryDx=0;entryDy=0;endSize=4;endArrow=blockThin;endFill=1;fontFamily=Times New Roman;" parent="1" source="PCtr2D4rtnSgnAKfIknr-44" target="PCtr2D4rtnSgnAKfIknr-45" edge="1">
          <mxGeometry relative="1" as="geometry" />
        </mxCell>
        <mxCell id="PCtr2D4rtnSgnAKfIknr-44" value="&lt;font style=&quot;font-size: 10px;&quot;&gt;h&lt;/font&gt;" style="rounded=0;whiteSpace=wrap;html=1;fontFamily=Times New Roman;" parent="1" vertex="1">
          <mxGeometry x="980" y="725" width="10" height="10" as="geometry" />
        </mxCell>
        <mxCell id="PCtr2D4rtnSgnAKfIknr-45" value="" style="rounded=1;whiteSpace=wrap;html=1;fillColor=#d5e8d4;strokeColor=#82b366;fontFamily=Times New Roman;" parent="1" vertex="1">
          <mxGeometry x="980" y="645" width="10" height="20" as="geometry" />
        </mxCell>
        <mxCell id="PCtr2D4rtnSgnAKfIknr-71" style="edgeStyle=orthogonalEdgeStyle;rounded=0;orthogonalLoop=1;jettySize=auto;html=1;entryX=0.5;entryY=1;entryDx=0;entryDy=0;endSize=4;endArrow=blockThin;endFill=1;fontFamily=Times New Roman;" parent="1" source="PCtr2D4rtnSgnAKfIknr-46" target="PCtr2D4rtnSgnAKfIknr-47" edge="1">
          <mxGeometry relative="1" as="geometry" />
        </mxCell>
        <mxCell id="PCtr2D4rtnSgnAKfIknr-46" value="&lt;font style=&quot;font-size: 10px;&quot;&gt;i&lt;/font&gt;" style="rounded=0;whiteSpace=wrap;html=1;fontFamily=Times New Roman;" parent="1" vertex="1">
          <mxGeometry x="1010" y="725" width="10" height="10" as="geometry" />
        </mxCell>
        <mxCell id="PCtr2D4rtnSgnAKfIknr-47" value="" style="rounded=1;whiteSpace=wrap;html=1;fillColor=#d5e8d4;strokeColor=#82b366;fontFamily=Times New Roman;" parent="1" vertex="1">
          <mxGeometry x="1010" y="645" width="10" height="20" as="geometry" />
        </mxCell>
        <mxCell id="PCtr2D4rtnSgnAKfIknr-48" value="1" style="rounded=1;whiteSpace=wrap;html=1;fillColor=#dae8fc;strokeColor=#6c8ebf;fontFamily=Times New Roman;" parent="1" vertex="1">
          <mxGeometry x="760" y="645" width="10" height="20" as="geometry" />
        </mxCell>
        <mxCell id="PCtr2D4rtnSgnAKfIknr-49" value="2" style="rounded=1;whiteSpace=wrap;html=1;fillColor=#dae8fc;strokeColor=#6c8ebf;fontFamily=Times New Roman;" parent="1" vertex="1">
          <mxGeometry x="790" y="645" width="10" height="20" as="geometry" />
        </mxCell>
        <mxCell id="PCtr2D4rtnSgnAKfIknr-50" value="3" style="rounded=1;whiteSpace=wrap;html=1;fillColor=#dae8fc;strokeColor=#6c8ebf;fontFamily=Times New Roman;" parent="1" vertex="1">
          <mxGeometry x="820" y="645" width="10" height="20" as="geometry" />
        </mxCell>
        <mxCell id="PCtr2D4rtnSgnAKfIknr-51" value="4" style="rounded=1;whiteSpace=wrap;html=1;fillColor=#dae8fc;strokeColor=#6c8ebf;fontFamily=Times New Roman;" parent="1" vertex="1">
          <mxGeometry x="850" y="645" width="10" height="20" as="geometry" />
        </mxCell>
        <mxCell id="PCtr2D4rtnSgnAKfIknr-52" value="5" style="rounded=1;whiteSpace=wrap;html=1;fillColor=#dae8fc;strokeColor=#6c8ebf;fontFamily=Times New Roman;" parent="1" vertex="1">
          <mxGeometry x="880" y="645" width="10" height="20" as="geometry" />
        </mxCell>
        <mxCell id="PCtr2D4rtnSgnAKfIknr-53" value="6" style="rounded=1;whiteSpace=wrap;html=1;fillColor=#dae8fc;strokeColor=#6c8ebf;fontFamily=Times New Roman;" parent="1" vertex="1">
          <mxGeometry x="910" y="645" width="10" height="20" as="geometry" />
        </mxCell>
        <mxCell id="PCtr2D4rtnSgnAKfIknr-54" value="7" style="rounded=1;whiteSpace=wrap;html=1;fillColor=#dae8fc;strokeColor=#6c8ebf;fontFamily=Times New Roman;" parent="1" vertex="1">
          <mxGeometry x="940" y="645" width="10" height="20" as="geometry" />
        </mxCell>
        <mxCell id="PCtr2D4rtnSgnAKfIknr-55" value="8" style="rounded=1;whiteSpace=wrap;html=1;fillColor=#dae8fc;strokeColor=#6c8ebf;fontFamily=Times New Roman;" parent="1" vertex="1">
          <mxGeometry x="970" y="645" width="10" height="20" as="geometry" />
        </mxCell>
        <mxCell id="PCtr2D4rtnSgnAKfIknr-56" value="9" style="rounded=1;whiteSpace=wrap;html=1;fillColor=#dae8fc;strokeColor=#6c8ebf;fontFamily=Times New Roman;" parent="1" vertex="1">
          <mxGeometry x="1000" y="645" width="10" height="20" as="geometry" />
        </mxCell>
        <mxCell id="PCtr2D4rtnSgnAKfIknr-57" value="*" style="rounded=1;whiteSpace=wrap;html=1;fillColor=#d5e8d4;strokeColor=#82b366;fontFamily=Times New Roman;" parent="1" vertex="1">
          <mxGeometry x="740" y="645" width="10" height="20" as="geometry" />
        </mxCell>
        <mxCell id="PCtr2D4rtnSgnAKfIknr-58" value="0" style="rounded=1;whiteSpace=wrap;html=1;fillColor=#dae8fc;strokeColor=#6c8ebf;fontFamily=Times New Roman;" parent="1" vertex="1">
          <mxGeometry x="730" y="645" width="10" height="20" as="geometry" />
        </mxCell>
        <mxCell id="PCtr2D4rtnSgnAKfIknr-60" value="&lt;font style=&quot;font-size: 10px;&quot;&gt;Linear Projection of Flattened Patches&lt;/font&gt;" style="rounded=1;whiteSpace=wrap;html=1;fillColor=#f8cecc;strokeColor=#b85450;fontFamily=Times New Roman;" parent="1" vertex="1">
          <mxGeometry x="760" y="685" width="260" height="20" as="geometry" />
        </mxCell>
        <mxCell id="PCtr2D4rtnSgnAKfIknr-72" value="&lt;font style=&quot;font-size: 10px;&quot;&gt;Transformer Encoder&lt;/font&gt;" style="rounded=1;whiteSpace=wrap;html=1;fillColor=#ffe6cc;strokeColor=#d79b00;fontFamily=Times New Roman;" parent="1" vertex="1">
          <mxGeometry x="730" y="605" width="290" height="20" as="geometry" />
        </mxCell>
        <mxCell id="PCtr2D4rtnSgnAKfIknr-85" value="&lt;font style=&quot;font-size: 10px;&quot;&gt;MLP Head&lt;/font&gt;" style="rounded=1;whiteSpace=wrap;html=1;fillColor=#e1d5e7;strokeColor=#9673a6;fontFamily=Times New Roman;" parent="1" vertex="1">
          <mxGeometry x="690" y="565" width="110" height="20" as="geometry" />
        </mxCell>
        <mxCell id="PCtr2D4rtnSgnAKfIknr-74" style="edgeStyle=orthogonalEdgeStyle;rounded=0;orthogonalLoop=1;jettySize=auto;html=1;entryX=0.5;entryY=1;entryDx=0;entryDy=0;endSize=4;endArrow=blockThin;endFill=1;fontFamily=Times New Roman;" parent="1" edge="1">
          <mxGeometry relative="1" as="geometry">
            <mxPoint x="775" y="644" as="sourcePoint" />
            <mxPoint x="775" y="625" as="targetPoint" />
          </mxGeometry>
        </mxCell>
        <mxCell id="PCtr2D4rtnSgnAKfIknr-75" style="edgeStyle=orthogonalEdgeStyle;rounded=0;orthogonalLoop=1;jettySize=auto;html=1;entryX=0.5;entryY=1;entryDx=0;entryDy=0;endSize=4;endArrow=blockThin;endFill=1;fontFamily=Times New Roman;" parent="1" edge="1">
          <mxGeometry relative="1" as="geometry">
            <mxPoint x="805" y="644" as="sourcePoint" />
            <mxPoint x="805" y="625" as="targetPoint" />
          </mxGeometry>
        </mxCell>
        <mxCell id="PCtr2D4rtnSgnAKfIknr-76" style="edgeStyle=orthogonalEdgeStyle;rounded=0;orthogonalLoop=1;jettySize=auto;html=1;entryX=0.5;entryY=1;entryDx=0;entryDy=0;endSize=4;endArrow=blockThin;endFill=1;fontFamily=Times New Roman;" parent="1" edge="1">
          <mxGeometry relative="1" as="geometry">
            <mxPoint x="835" y="644" as="sourcePoint" />
            <mxPoint x="835" y="625" as="targetPoint" />
          </mxGeometry>
        </mxCell>
        <mxCell id="PCtr2D4rtnSgnAKfIknr-77" style="edgeStyle=orthogonalEdgeStyle;rounded=0;orthogonalLoop=1;jettySize=auto;html=1;entryX=0.5;entryY=1;entryDx=0;entryDy=0;endSize=4;endArrow=blockThin;endFill=1;fontFamily=Times New Roman;" parent="1" edge="1">
          <mxGeometry relative="1" as="geometry">
            <mxPoint x="865" y="644" as="sourcePoint" />
            <mxPoint x="865" y="625" as="targetPoint" />
          </mxGeometry>
        </mxCell>
        <mxCell id="PCtr2D4rtnSgnAKfIknr-78" style="edgeStyle=orthogonalEdgeStyle;rounded=0;orthogonalLoop=1;jettySize=auto;html=1;entryX=0.5;entryY=1;entryDx=0;entryDy=0;endSize=4;endArrow=blockThin;endFill=1;fontFamily=Times New Roman;" parent="1" edge="1">
          <mxGeometry relative="1" as="geometry">
            <mxPoint x="895" y="644" as="sourcePoint" />
            <mxPoint x="895" y="625" as="targetPoint" />
          </mxGeometry>
        </mxCell>
        <mxCell id="PCtr2D4rtnSgnAKfIknr-79" style="edgeStyle=orthogonalEdgeStyle;rounded=0;orthogonalLoop=1;jettySize=auto;html=1;entryX=0.5;entryY=1;entryDx=0;entryDy=0;endSize=4;endArrow=blockThin;endFill=1;fontFamily=Times New Roman;" parent="1" edge="1">
          <mxGeometry relative="1" as="geometry">
            <mxPoint x="925" y="644" as="sourcePoint" />
            <mxPoint x="925" y="625" as="targetPoint" />
          </mxGeometry>
        </mxCell>
        <mxCell id="PCtr2D4rtnSgnAKfIknr-80" style="edgeStyle=orthogonalEdgeStyle;rounded=0;orthogonalLoop=1;jettySize=auto;html=1;entryX=0.5;entryY=1;entryDx=0;entryDy=0;endSize=4;endArrow=blockThin;endFill=1;fontFamily=Times New Roman;" parent="1" edge="1">
          <mxGeometry relative="1" as="geometry">
            <mxPoint x="955" y="644" as="sourcePoint" />
            <mxPoint x="955" y="625" as="targetPoint" />
          </mxGeometry>
        </mxCell>
        <mxCell id="PCtr2D4rtnSgnAKfIknr-81" style="edgeStyle=orthogonalEdgeStyle;rounded=0;orthogonalLoop=1;jettySize=auto;html=1;entryX=0.5;entryY=1;entryDx=0;entryDy=0;endSize=4;endArrow=blockThin;endFill=1;fontFamily=Times New Roman;" parent="1" edge="1">
          <mxGeometry relative="1" as="geometry">
            <mxPoint x="985" y="644" as="sourcePoint" />
            <mxPoint x="985" y="625" as="targetPoint" />
          </mxGeometry>
        </mxCell>
        <mxCell id="PCtr2D4rtnSgnAKfIknr-82" style="edgeStyle=orthogonalEdgeStyle;rounded=0;orthogonalLoop=1;jettySize=auto;html=1;entryX=0.5;entryY=1;entryDx=0;entryDy=0;endSize=4;endArrow=blockThin;endFill=1;fontFamily=Times New Roman;" parent="1" edge="1">
          <mxGeometry relative="1" as="geometry">
            <mxPoint x="1015" y="644" as="sourcePoint" />
            <mxPoint x="1015" y="625" as="targetPoint" />
          </mxGeometry>
        </mxCell>
        <mxCell id="PCtr2D4rtnSgnAKfIknr-96" style="edgeStyle=orthogonalEdgeStyle;rounded=0;orthogonalLoop=1;jettySize=auto;html=1;entryX=0.5;entryY=1;entryDx=0;entryDy=0;endSize=4;endArrow=blockThin;endFill=1;fontFamily=Times New Roman;" parent="1" edge="1">
          <mxGeometry relative="1" as="geometry">
            <mxPoint x="744.88" y="645" as="sourcePoint" />
            <mxPoint x="744.88" y="626" as="targetPoint" />
          </mxGeometry>
        </mxCell>
        <mxCell id="PCtr2D4rtnSgnAKfIknr-97" style="edgeStyle=orthogonalEdgeStyle;rounded=0;orthogonalLoop=1;jettySize=auto;html=1;entryX=0.5;entryY=1;entryDx=0;entryDy=0;endSize=4;endArrow=blockThin;endFill=1;fontFamily=Times New Roman;" parent="1" edge="1">
          <mxGeometry relative="1" as="geometry">
            <mxPoint x="744.88" y="605" as="sourcePoint" />
            <mxPoint x="744.88" y="586" as="targetPoint" />
          </mxGeometry>
        </mxCell>
        <mxCell id="PCtr2D4rtnSgnAKfIknr-98" value="&lt;font style=&quot;font-size: 10px;&quot;&gt;Class Output&lt;/font&gt;" style="rounded=1;whiteSpace=wrap;html=1;fillColor=#f5f5f5;strokeColor=#666666;fontColor=#333333;fontFamily=Times New Roman;" parent="1" vertex="1">
          <mxGeometry x="690" y="525" width="110" height="20" as="geometry" />
        </mxCell>
        <mxCell id="PCtr2D4rtnSgnAKfIknr-100" style="edgeStyle=orthogonalEdgeStyle;rounded=0;orthogonalLoop=1;jettySize=auto;html=1;entryX=0.5;entryY=1;entryDx=0;entryDy=0;endSize=4;endArrow=blockThin;endFill=1;fontFamily=Times New Roman;" parent="1" edge="1">
          <mxGeometry relative="1" as="geometry">
            <mxPoint x="744.88" y="565" as="sourcePoint" />
            <mxPoint x="744.88" y="546" as="targetPoint" />
          </mxGeometry>
        </mxCell>
        <mxCell id="PCtr2D4rtnSgnAKfIknr-114" value="&lt;div style=&quot;font-size: 10px;&quot;&gt;&lt;font style=&quot;font-size: 10px;&quot;&gt;&lt;font style=&quot;font-size: 10px;&quot;&gt;&lt;font style=&quot;font-size: 10px;&quot;&gt;Patch+&lt;/font&gt;Positional&amp;nbsp;&lt;/font&gt;&lt;/font&gt;&lt;/div&gt;&lt;div style=&quot;font-size: 10px;&quot;&gt;&lt;font style=&quot;font-size: 10px;&quot;&gt;&lt;span style=&quot;background-color: initial;&quot;&gt;Embedding&lt;/span&gt;&lt;/font&gt;&lt;/div&gt;" style="text;html=1;strokeColor=none;fillColor=none;align=center;verticalAlign=middle;whiteSpace=wrap;rounded=0;fontFamily=Times New Roman;" parent="1" vertex="1">
          <mxGeometry x="650" y="640" width="75" height="30" as="geometry" />
        </mxCell>
        <mxCell id="PCtr2D4rtnSgnAKfIknr-115" value="" style="endArrow=none;dashed=1;html=1;dashPattern=1 3;strokeWidth=2;rounded=0;fontFamily=Times New Roman;" parent="1" edge="1">
          <mxGeometry width="50" height="50" relative="1" as="geometry">
            <mxPoint x="640" y="750" as="sourcePoint" />
            <mxPoint x="640" y="440" as="targetPoint" />
          </mxGeometry>
        </mxCell>
        <mxCell id="PCtr2D4rtnSgnAKfIknr-117" value="" style="endArrow=blockThin;html=1;rounded=0;entryX=0;entryY=0.5;entryDx=0;entryDy=0;endFill=1;endSize=4;fontFamily=Times New Roman;" parent="1" target="PCtr2D4rtnSgnAKfIknr-10" edge="1">
          <mxGeometry width="50" height="50" relative="1" as="geometry">
            <mxPoint x="557.25" y="565" as="sourcePoint" />
            <mxPoint x="547" y="461" as="targetPoint" />
            <Array as="points">
              <mxPoint x="487.25" y="565" />
              <mxPoint x="487" y="473" />
            </Array>
          </mxGeometry>
        </mxCell>
        <mxCell id="U2-DMZXMSWRxi-1_azWY-1" value="&lt;p style=&quot;line-height: 60%;&quot;&gt;&lt;font style=&quot;font-size: 12px;&quot;&gt;N×&lt;/font&gt;&lt;/p&gt;" style="text;html=1;strokeColor=none;fillColor=none;align=center;verticalAlign=middle;whiteSpace=wrap;rounded=0;container=0;strokeWidth=0.5;fontFamily=Times New Roman;" parent="1" vertex="1">
          <mxGeometry x="460" y="560" width="10" height="5" as="geometry" />
        </mxCell>
        <mxCell id="BZzDYX-AZjuan9Ud9RMN-2" value="&lt;font style=&quot;font-size: 10px;&quot;&gt;(a)Transformer Encoder&lt;/font&gt;" style="rounded=0;whiteSpace=wrap;html=1;fillColor=none;strokeColor=none;fontFamily=Times New Roman;" vertex="1" parent="1">
          <mxGeometry x="484.25" y="770" width="140" height="20" as="geometry" />
        </mxCell>
        <mxCell id="BZzDYX-AZjuan9Ud9RMN-3" value="&lt;font style=&quot;font-size: 10px;&quot;&gt;(b)Vision Transformer (ViT)&lt;/font&gt;" style="rounded=0;whiteSpace=wrap;html=1;fillColor=none;strokeColor=none;fontFamily=Times New Roman;" vertex="1" parent="1">
          <mxGeometry x="815" y="770" width="140" height="20" as="geometry" />
        </mxCell>
      </root>
    </mxGraphModel>
  </diagram>
  <diagram id="BTimRRWRKvzJZSD-uc2G" name="编码器横">
    <mxGraphModel dx="973" dy="559" grid="1" gridSize="10" guides="1" tooltips="1" connect="1" arrows="1" fold="1" page="1" pageScale="1" pageWidth="4681" pageHeight="3300" math="0" shadow="0">
      <root>
        <mxCell id="0" />
        <mxCell id="1" parent="0" />
        <mxCell id="Mm_tipWD6VU1jW12C0O8-24" value="" style="rounded=0;whiteSpace=wrap;html=1;fontFamily=Times New Roman;fontSize=11;fillColor=#f5f5f5;dashed=1;strokeColor=#666666;collapsible=0;resizable=1;metaEdit=0;connectable=1;allowArrows=1;perimeter=rectanglePerimeter;imageWidth=24;arcSize=12;absoluteArcSize=0;strokeOpacity=100;noLabel=0;portConstraintRotation=0;snapToPoint=1;verticalLabelPosition=bottom;verticalAlign=top;html=1;shape=mxgraph.basic.rect;strokeWidth=1;size=20;indent =5;top=1;right=1;fontColor=#333333;" parent="1" vertex="1">
          <mxGeometry x="992" y="615" width="293" height="75" as="geometry" />
        </mxCell>
        <mxCell id="Mm_tipWD6VU1jW12C0O8-11" style="edgeStyle=orthogonalEdgeStyle;rounded=0;orthogonalLoop=1;jettySize=auto;html=1;entryX=0;entryY=0.5;entryDx=0;entryDy=0;endSize=4;endArrow=blockThin;endFill=1;fontFamily=Times New Roman;" parent="1" source="UiV-NGcih-RcL3b6JOfk-1" target="Mm_tipWD6VU1jW12C0O8-10" edge="1">
          <mxGeometry relative="1" as="geometry" />
        </mxCell>
        <mxCell id="UiV-NGcih-RcL3b6JOfk-1" value="&lt;div style=&quot;font-size: 10px;&quot;&gt;&lt;font style=&quot;font-size: 10px;&quot;&gt;input&lt;/font&gt;&lt;/div&gt;&lt;div style=&quot;font-size: 10px;&quot;&gt;&lt;span style=&quot;background-color: initial; font-size: 10px;&quot;&gt;Embedding&lt;/span&gt;&lt;/div&gt;" style="rounded=0;whiteSpace=wrap;html=1;fontSize=10;fillColor=#f8cecc;strokeColor=#b85450;fontFamily=Times New Roman;" parent="1" vertex="1">
          <mxGeometry x="900" y="645" width="60" height="30" as="geometry" />
        </mxCell>
        <mxCell id="Mm_tipWD6VU1jW12C0O8-15" style="edgeStyle=orthogonalEdgeStyle;rounded=0;orthogonalLoop=1;jettySize=auto;html=1;entryX=0;entryY=0.5;entryDx=0;entryDy=0;endSize=4;endArrow=blockThin;endFill=1;fontFamily=Times New Roman;" parent="1" source="Mm_tipWD6VU1jW12C0O8-4" target="Mm_tipWD6VU1jW12C0O8-5" edge="1">
          <mxGeometry relative="1" as="geometry" />
        </mxCell>
        <mxCell id="Mm_tipWD6VU1jW12C0O8-4" value="&lt;div style=&quot;font-size: 10px;&quot;&gt;MHA&lt;/div&gt;" style="rounded=0;whiteSpace=wrap;html=1;fontSize=10;fillColor=#ffe6cc;strokeColor=#d79b00;fontFamily=Times New Roman;" parent="1" vertex="1">
          <mxGeometry x="1020" y="640" width="50" height="40" as="geometry" />
        </mxCell>
        <mxCell id="Mm_tipWD6VU1jW12C0O8-16" style="edgeStyle=orthogonalEdgeStyle;rounded=0;orthogonalLoop=1;jettySize=auto;html=1;entryX=0;entryY=0.5;entryDx=0;entryDy=0;endSize=4;endArrow=blockThin;endFill=1;fontFamily=Times New Roman;" parent="1" source="Mm_tipWD6VU1jW12C0O8-5" target="Mm_tipWD6VU1jW12C0O8-6" edge="1">
          <mxGeometry relative="1" as="geometry" />
        </mxCell>
        <mxCell id="Mm_tipWD6VU1jW12C0O8-5" value="&lt;div style=&quot;font-size: 10px;&quot;&gt;Add+Norm&lt;/div&gt;" style="rounded=0;whiteSpace=wrap;html=1;fontSize=10;fillColor=#dae8fc;strokeColor=#6c8ebf;fontFamily=Times New Roman;" parent="1" vertex="1">
          <mxGeometry x="1090" y="650" width="50" height="20" as="geometry" />
        </mxCell>
        <mxCell id="Mm_tipWD6VU1jW12C0O8-17" style="edgeStyle=orthogonalEdgeStyle;rounded=0;orthogonalLoop=1;jettySize=auto;html=1;entryX=0;entryY=0.5;entryDx=0;entryDy=0;endSize=4;endArrow=blockThin;endFill=1;fontFamily=Times New Roman;" parent="1" source="Mm_tipWD6VU1jW12C0O8-6" target="Mm_tipWD6VU1jW12C0O8-8" edge="1">
          <mxGeometry relative="1" as="geometry" />
        </mxCell>
        <mxCell id="Mm_tipWD6VU1jW12C0O8-6" value="&lt;div style=&quot;font-size: 10px;&quot;&gt;FF&lt;/div&gt;" style="rounded=0;whiteSpace=wrap;html=1;fontSize=10;fillColor=#fff2cc;strokeColor=#d6b656;fontFamily=Times New Roman;" parent="1" vertex="1">
          <mxGeometry x="1160" y="650" width="50" height="20" as="geometry" />
        </mxCell>
        <mxCell id="Mm_tipWD6VU1jW12C0O8-19" style="edgeStyle=orthogonalEdgeStyle;rounded=0;orthogonalLoop=1;jettySize=auto;html=1;endSize=4;endArrow=blockThin;endFill=1;fontFamily=Times New Roman;" parent="1" source="Mm_tipWD6VU1jW12C0O8-8" edge="1">
          <mxGeometry relative="1" as="geometry">
            <mxPoint x="1300" y="660.0000000000001" as="targetPoint" />
          </mxGeometry>
        </mxCell>
        <mxCell id="Mm_tipWD6VU1jW12C0O8-8" value="&lt;div style=&quot;font-size: 10px;&quot;&gt;Add+Norm&lt;/div&gt;" style="rounded=0;whiteSpace=wrap;html=1;fontSize=10;fillColor=#dae8fc;strokeColor=#6c8ebf;fontFamily=Times New Roman;" parent="1" vertex="1">
          <mxGeometry x="1230" y="650" width="50" height="20" as="geometry" />
        </mxCell>
        <mxCell id="Mm_tipWD6VU1jW12C0O8-25" style="edgeStyle=orthogonalEdgeStyle;rounded=0;orthogonalLoop=1;jettySize=auto;html=1;entryX=0.5;entryY=1;entryDx=0;entryDy=0;endArrow=none;endFill=0;fontFamily=Times New Roman;" parent="1" source="Mm_tipWD6VU1jW12C0O8-9" target="Mm_tipWD6VU1jW12C0O8-10" edge="1">
          <mxGeometry relative="1" as="geometry" />
        </mxCell>
        <mxCell id="Mm_tipWD6VU1jW12C0O8-9" value="&lt;div style=&quot;font-size: 10px; line-height: 100%;&quot;&gt;Positional&lt;/div&gt;&lt;div style=&quot;font-size: 10px; line-height: 100%;&quot;&gt;&lt;span style=&quot;background-color: initial;&quot;&gt;Encoding&lt;/span&gt;&lt;/div&gt;" style="rounded=0;whiteSpace=wrap;html=1;fontSize=10;fillColor=#f5f5f5;strokeColor=none;fontColor=#333333;fontFamily=Times New Roman;" parent="1" vertex="1">
          <mxGeometry x="955" y="700" width="60" height="20" as="geometry" />
        </mxCell>
        <mxCell id="Mm_tipWD6VU1jW12C0O8-12" style="edgeStyle=orthogonalEdgeStyle;rounded=0;orthogonalLoop=1;jettySize=auto;html=1;entryX=0;entryY=0.5;entryDx=0;entryDy=0;endSize=4;endArrow=blockThin;endFill=1;fontFamily=Times New Roman;" parent="1" source="Mm_tipWD6VU1jW12C0O8-10" target="Mm_tipWD6VU1jW12C0O8-4" edge="1">
          <mxGeometry relative="1" as="geometry" />
        </mxCell>
        <mxCell id="Mm_tipWD6VU1jW12C0O8-10" value="" style="shape=orEllipse;perimeter=ellipsePerimeter;whiteSpace=wrap;html=1;backgroundOutline=1;fontFamily=Times New Roman;" parent="1" vertex="1">
          <mxGeometry x="980" y="655" width="10" height="10" as="geometry" />
        </mxCell>
        <mxCell id="Mm_tipWD6VU1jW12C0O8-13" value="" style="endArrow=blockThin;startArrow=blockThin;html=1;rounded=0;entryX=0;entryY=0.25;entryDx=0;entryDy=0;exitX=0;exitY=0.75;exitDx=0;exitDy=0;endSize=4;endFill=1;startFill=1;startSize=4;fontFamily=Times New Roman;" parent="1" source="Mm_tipWD6VU1jW12C0O8-4" target="Mm_tipWD6VU1jW12C0O8-4" edge="1">
          <mxGeometry width="50" height="50" relative="1" as="geometry">
            <mxPoint x="1000" y="670" as="sourcePoint" />
            <mxPoint x="1000" y="670" as="targetPoint" />
            <Array as="points">
              <mxPoint x="1000" y="670" />
              <mxPoint x="1000" y="650" />
            </Array>
          </mxGeometry>
        </mxCell>
        <mxCell id="Mm_tipWD6VU1jW12C0O8-14" value="" style="endArrow=blockThin;html=1;rounded=0;entryX=0.5;entryY=0;entryDx=0;entryDy=0;endSize=4;endFill=1;fontFamily=Times New Roman;" parent="1" edge="1">
          <mxGeometry width="50" height="50" relative="1" as="geometry">
            <mxPoint x="996" y="660" as="sourcePoint" />
            <mxPoint x="1111" y="650.0000000000001" as="targetPoint" />
            <Array as="points">
              <mxPoint x="996" y="630" />
              <mxPoint x="1111" y="630" />
            </Array>
          </mxGeometry>
        </mxCell>
        <mxCell id="Mm_tipWD6VU1jW12C0O8-18" value="" style="endArrow=blockThin;html=1;rounded=0;entryX=0.5;entryY=0;entryDx=0;entryDy=0;endSize=4;endFill=1;fontFamily=Times New Roman;" parent="1" edge="1">
          <mxGeometry width="50" height="50" relative="1" as="geometry">
            <mxPoint x="1145" y="660" as="sourcePoint" />
            <mxPoint x="1260" y="650.0000000000001" as="targetPoint" />
            <Array as="points">
              <mxPoint x="1145" y="630" />
              <mxPoint x="1260" y="630" />
            </Array>
          </mxGeometry>
        </mxCell>
        <mxCell id="Mm_tipWD6VU1jW12C0O8-22" style="edgeStyle=orthogonalEdgeStyle;rounded=0;orthogonalLoop=1;jettySize=auto;html=1;entryX=0;entryY=0.5;entryDx=0;entryDy=0;endSize=4;endArrow=blockThin;endFill=1;fontFamily=Times New Roman;" parent="1" source="Mm_tipWD6VU1jW12C0O8-21" target="UiV-NGcih-RcL3b6JOfk-1" edge="1">
          <mxGeometry relative="1" as="geometry" />
        </mxCell>
        <mxCell id="Mm_tipWD6VU1jW12C0O8-21" value="&lt;div style=&quot;font-size: 10px; line-height: 100%;&quot;&gt;Input&lt;/div&gt;" style="rounded=0;whiteSpace=wrap;html=1;fontSize=10;fillColor=none;strokeColor=none;fontColor=#333333;fontFamily=Times New Roman;" parent="1" vertex="1">
          <mxGeometry x="840" y="650" width="40" height="20" as="geometry" />
        </mxCell>
        <mxCell id="Mm_tipWD6VU1jW12C0O8-23" value="&lt;div style=&quot;font-size: 10px; line-height: 100%;&quot;&gt;Output&lt;/div&gt;" style="rounded=0;whiteSpace=wrap;html=1;fontSize=10;fillColor=none;strokeColor=none;fontColor=#333333;fontFamily=Times New Roman;" parent="1" vertex="1">
          <mxGeometry x="1300" y="650" width="40" height="20" as="geometry" />
        </mxCell>
        <mxCell id="Mm_tipWD6VU1jW12C0O8-26" value="xN" style="text;html=1;strokeColor=none;fillColor=none;align=center;verticalAlign=middle;whiteSpace=wrap;rounded=0;fontFamily=Times New Roman;" parent="1" vertex="1">
          <mxGeometry x="1108.5" y="690" width="60" height="20" as="geometry" />
        </mxCell>
        <mxCell id="Mm_tipWD6VU1jW12C0O8-27" value="" style="rounded=0;whiteSpace=wrap;html=1;fillColor=#ffe6cc;strokeColor=#d79b00;fontFamily=Times New Roman;" parent="1" vertex="1">
          <mxGeometry x="940" y="590" width="20" height="10" as="geometry" />
        </mxCell>
        <mxCell id="Mm_tipWD6VU1jW12C0O8-28" value="&lt;div&gt;Multi-Head&amp;nbsp;&lt;span style=&quot;background-color: initial;&quot;&gt;Attention&lt;/span&gt;&lt;/div&gt;" style="text;html=1;strokeColor=none;fillColor=none;align=center;verticalAlign=middle;whiteSpace=wrap;rounded=0;fontFamily=Times New Roman;" parent="1" vertex="1">
          <mxGeometry x="970" y="590" width="120" height="10" as="geometry" />
        </mxCell>
        <mxCell id="Mm_tipWD6VU1jW12C0O8-29" value="&lt;div style=&quot;font-size: 10px;&quot;&gt;&lt;br&gt;&lt;/div&gt;" style="rounded=0;whiteSpace=wrap;html=1;fontSize=10;fillColor=#fff2cc;strokeColor=#d6b656;fontFamily=Times New Roman;" parent="1" vertex="1">
          <mxGeometry x="1100" y="590" width="21.5" height="10" as="geometry" />
        </mxCell>
        <mxCell id="Mm_tipWD6VU1jW12C0O8-30" value="&lt;div&gt;Feed Forward&lt;/div&gt;" style="text;html=1;strokeColor=none;fillColor=none;align=center;verticalAlign=middle;whiteSpace=wrap;rounded=0;fontFamily=Times New Roman;" parent="1" vertex="1">
          <mxGeometry x="1138" y="590" width="78.5" height="10" as="geometry" />
        </mxCell>
      </root>
    </mxGraphModel>
  </diagram>
</mxfile>
